PathFileType	4	(X/Y/Z)	C:/Users/opensim2020/Desktop/walking_exp_matlab/subject03_walking09_straight_04.trc	
DataRate	CameraRate	NumFrames	NumMarkers	Units	OrigDataRate	OrigDataStartFrame	OrigNumFrames	
100.00	100.00	9	47	mm	100.00	3789	353	
Frame#	Time	LFHD			RFHD			LBHD			RBHD			C7			T10			CLAV			STRN			RBAK			LSHO			LUPA			LELB			LFRM			LWRA			LWRB			LFIN			RSHO			RUPA			RELB			RFRM			RWRA			RWRB			RFIN			LASI			RASI			LPSI			RPSI			LTHI			LKNE			LTIB			LANK			LHEE			LTOE			RTHI			RKNE			RTIB			RANK			RHEE			RTOE			*39			*40			*41			*42			*43			*44			*45			*46			
		X1	Y1	Z1	X2	Y2	Z2	X3	Y3	Z3	X4	Y4	Z4	X5	Y5	Z5	X6	Y6	Z6	X7	Y7	Z7	X8	Y8	Z8	X9	Y9	Z9	X10	Y10	Z10	X11	Y11	Z11	X12	Y12	Z12	X13	Y13	Z13	X14	Y14	Z14	X15	Y15	Z15	X16	Y16	Z16	X17	Y17	Z17	X18	Y18	Z18	X19	Y19	Z19	X20	Y20	Z20	X21	Y21	Z21	X22	Y22	Z22	X23	Y23	Z23	X24	Y24	Z24	X25	Y25	Z25	X26	Y26	Z26	X27	Y27	Z27	X28	Y28	Z28	X29	Y29	Z29	X30	Y30	Z30	X31	Y31	Z31	X32	Y32	Z32	X33	Y33	Z33	X34	Y34	Z34	X35	Y35	Z35	X36	Y36	Z36	X37	Y37	Z37	X38	Y38	Z38	X39	Y39	Z39	X40	Y40	Z40	X41	Y41	Z41	X42	Y42	Z42	X43	Y43	Z43	X44	Y44	Z44	X45	Y45	Z45	X46	Y46	Z46	X47	Y47	Z47	

45	0.440	1492.86401	1133.28162	1634.60913	1361.04822	1149.94617	1638.09998	1503.48181	1255.09167	1576.43628	1373.16113	1266.73669	1580.18933	1451.85010	1278.88599	1422.99194	1460.63550	1305.26123	1110.11304	1435.18311	1155.86731	1349.30542	1439.32471	1107.19714	1185.63818	1367.33630	1340.68591	1245.87085	1594.53210	1178.52417	1388.06287	1669.83545	1152.95996	1195.64941	1683.94458	1124.13000	1076.57727	1679.29712	1072.48535	957.11731	1645.82874	1034.60413	845.48950	1700.03760	1048.84900	847.42700	1688.46655	1014.66864	771.09460	1282.36194	1222.90979	1367.77966	1216.20435	1227.29797	1142.97815	1204.45850	1212.42480	1031.05615	1201.01941	1200.06812	894.47888	1232.98364	1170.17969	797.51648	1191.91699	1205.95398	794.27979	1199.75000	1186.30359	721.93170	1566.32129	1124.41235	951.11823	1328.27356	1146.34814	946.01782	1530.31409	1290.35840	972.12262	1381.32642	1303.41870	972.94165	1605.50781	1167.62622	647.17010	1562.82166	1159.00171	469.70340	1566.88293	1212.79150	280.12448	1524.47144	1240.98267	72.57583	1488.82751	1282.64038	37.02750	1497.06091	1089.49487	35.01343	1282.79578	1160.23962	648.96594	1301.11670	1108.57568	476.34409	1303.01990	1239.19189	337.89011	1350.06519	1383.75317	179.23409	1406.81189	1434.67078	178.27687	1357.07043	1300.87048	63.96424	1453.13342	1227.77722	1685.97205																					 
46	0.450	1493.52173	1126.28662	1634.33032	1361.77234	1143.02454	1638.06116	1504.13818	1248.17798	1576.32849	1373.74915	1259.77478	1580.24426	1452.62817	1272.21875	1423.03528	1461.52722	1298.98987	1110.20496	1435.45325	1149.15186	1349.35022	1439.71204	1100.86121	1185.46619	1368.11902	1334.40100	1245.93286	1594.72803	1171.21558	1388.23462	1669.97437	1143.70959	1196.36096	1683.83264	1113.71582	1077.63135	1678.56250	1060.43787	958.96405	1644.41443	1021.17432	847.82916	1698.77356	1035.10876	849.52960	1686.73608	999.94220	773.57068	1282.95093	1216.93140	1367.80090	1216.76086	1222.47485	1143.15552	1204.85657	1207.99463	1031.12378	1201.42773	1195.55408	894.55664	1233.35876	1165.27881	797.73981	1192.64819	1201.39355	794.33350	1200.29053	1181.18042	722.10565	1566.91724	1118.07678	950.98083	1328.82202	1139.91907	946.23889	1530.61841	1284.11328	971.76617	1381.74512	1297.00952	972.81348	1605.64050	1162.45654	646.85114	1563.04639	1155.63269	469.29587	1566.89514	1210.88306	280.07935	1524.46191	1240.81006	72.81351	1488.31775	1282.24548	36.66863	1497.06750	1089.43420	35.01191	1283.04102	1148.48608	650.33972	1302.47546	1094.96655	478.01999	1304.40662	1222.02368	336.10764	1351.05750	1362.94324	173.97272	1407.24390	1414.23840	171.20375	1359.40576	1275.87097	62.17872	1453.78491	1220.56201	1685.44678																					 
47	0.460	1494.18396	1119.29407	1633.99866	1362.41602	1136.07446	1637.97681	1504.73059	1241.25928	1576.18372	1374.35059	1252.92517	1580.33960	1453.34448	1265.53076	1423.03357	1462.39502	1292.70398	1110.24072	1435.78955	1142.62439	1349.21216	1440.04175	1094.74512	1185.06042	1369.08069	1328.29199	1246.14587	1594.82214	1163.93774	1388.28943	1670.03564	1134.61255	1196.95581	1683.59558	1103.29700	1078.39722	1677.87354	1048.59363	960.65680	1643.10413	1007.83197	850.27423	1697.42725	1021.54065	851.52094	1684.99353	985.45953	776.03967	1283.50098	1210.93567	1367.68884	1217.25854	1217.10974	1143.00220	1205.26123	1203.37354	1031.04102	1201.89319	1190.76489	894.52716	1233.45862	1159.88904	797.78204	1193.29419	1196.63855	794.23120	1200.81165	1176.12292	722.18335	1567.39893	1111.73962	950.79456	1329.24707	1133.64111	946.39386	1530.85669	1277.86853	971.41626	1382.10693	1290.81506	972.53955	1605.78833	1157.59827	646.46405	1563.34692	1152.46716	468.91904	1566.97693	1209.15771	280.06238	1524.16943	1240.38306	72.60829	1488.37695	1282.27893	37.12774	1497.26990	1089.49927	35.15755	1283.50427	1137.75464	651.30713	1303.95691	1081.99316	479.78894	1305.69043	1204.93835	334.07547	1352.13611	1341.61670	168.18021	1407.76392	1393.25842	163.65843	1361.70007	1250.18518	60.01836	1454.44434	1213.44604	1685.44287																					 
48	0.470	1494.76062	1112.33679	1633.63916	1362.95776	1129.08179	1637.74536	1505.46106	1234.49670	1576.08044	1374.89075	1246.08777	1580.33228	1453.96313	1258.88806	1422.98376	1463.21545	1286.35535	1110.18030	1436.01697	1136.15552	1348.93298	1440.29810	1088.65881	1184.75146	1370.02686	1322.08032	1246.10571	1594.97742	1156.72754	1388.25842	1670.16687	1125.61914	1197.47693	1683.68762	1093.34253	1079.34412	1677.11487	1036.89258	962.22968	1641.69763	994.68768	852.64032	1696.02954	1008.21014	853.47919	1683.17346	971.25354	778.47565	1284.01758	1204.84448	1367.53638	1217.82275	1211.71790	1142.76575	1205.63208	1198.52405	1030.87634	1202.30896	1185.87891	894.32983	1233.77502	1154.56470	797.69873	1193.77722	1191.55261	794.02478	1201.25708	1170.60168	722.05640	1567.82324	1105.39185	950.52094	1329.50513	1127.46204	946.49316	1531.11829	1271.66650	971.10266	1382.56604	1284.71240	972.18866	1605.98181	1153.06628	646.10645	1563.65930	1149.47546	468.47491	1567.08179	1207.50952	280.05899	1524.25183	1240.27405	72.86774	1489.12097	1282.93774	38.36847	1497.28333	1089.44739	35.07693	1283.81311	1127.15405	652.20245	1304.98755	1069.16919	481.53625	1306.71399	1188.06042	331.96201	1353.04590	1319.59473	161.62921	1408.33594	1371.54907	155.39761	1363.84949	1223.95740	57.87080	1455.04834	1206.41882	1685.39185																					 
49	0.480	1495.19336	1105.37573	1633.23694	1363.48230	1122.28296	1637.59875	1505.76941	1227.57068	1575.79321	1375.34204	1239.19714	1580.24329	1454.53687	1252.22754	1422.90125	1464.01807	1280.07617	1110.08606	1436.29736	1129.78223	1348.51575	1440.55908	1082.40295	1184.58691	1370.95557	1315.84424	1245.91455	1595.13086	1149.55627	1388.16980	1670.29346	1116.77795	1197.89758	1683.56897	1083.37048	1079.99890	1676.34106	1025.41577	963.76178	1640.16687	981.72223	854.89050	1694.55042	995.17078	855.28876	1681.16821	957.24170	780.81396	1284.49683	1198.68909	1367.13672	1218.25183	1206.06677	1142.62500	1206.05493	1193.38867	1030.64307	1202.78357	1180.68896	894.04828	1234.01538	1149.02954	797.69312	1194.59265	1186.51038	793.67261	1201.80139	1165.30603	721.85571	1568.33447	1098.97913	950.14319	1329.84082	1121.27429	946.59863	1531.38696	1265.47168	970.76080	1382.90479	1278.56079	971.86981	1605.99792	1148.79651	645.65009	1563.96643	1146.59277	468.06119	1567.13525	1205.84558	280.02628	1524.23608	1240.12061	72.97758	1489.16260	1283.07971	38.63653	1497.34290	1089.42834	35.11474	1284.39343	1117.59070	653.21606	1306.13794	1057.02551	483.26523	1307.59924	1171.42188	329.71198	1353.98376	1297.42700	155.15552	1409.14905	1349.33167	146.90715	1365.71301	1197.29285	55.94900	1455.74170	1199.39844	1685.01318																					 
50	0.490	1495.66736	1098.43689	1632.80005	1363.87329	1115.34119	1637.35461	1506.10168	1220.67249	1575.49402	1375.78833	1232.38330	1580.12427	1455.08752	1245.62866	1422.77368	1464.75916	1273.72327	1109.89648	1436.48767	1123.08252	1348.37048	1440.77014	1076.01160	1184.09277	1371.85767	1309.57263	1245.68970	1595.24438	1142.45422	1387.97815	1670.31873	1108.09033	1198.22168	1683.37634	1073.56018	1080.65991	1675.45764	1014.14368	965.18829	1638.62000	969.00195	857.20691	1693.03052	982.33783	857.09906	1679.10327	943.45673	783.13873	1284.85291	1192.51624	1366.76074	1218.76624	1200.44922	1142.25500	1206.44995	1188.05115	1030.25037	1203.17969	1175.40369	893.69482	1234.27002	1143.35486	797.36859	1195.02991	1181.00598	793.28937	1202.40955	1159.58569	721.57776	1568.72852	1093.07373	949.68201	1330.15723	1115.13416	946.76868	1531.62170	1259.27393	970.44519	1383.25854	1272.34045	971.54517	1606.40259	1144.84241	645.14972	1564.27893	1143.69788	467.63647	1567.13074	1204.15442	279.93323	1524.17786	1239.94214	73.11647	1489.31055	1283.26453	39.23979	1497.36743	1089.39685	35.09875	1284.74011	1108.22644	654.10358	1307.11414	1045.39185	484.90012	1308.46179	1155.06958	327.49722	1354.90723	1274.72278	148.44331	1409.99219	1326.43787	137.87546	1367.18567	1170.11084	53.86114	1456.23157	1192.40735	1684.86768																					 
51	0.500	1496.04919	1091.57129	1632.31262	1364.28149	1108.38464	1637.00195	1506.73352	1213.99805	1575.30005	1376.16089	1225.64685	1580.09375	1455.51978	1238.90210	1422.54041	1465.45471	1267.52527	1109.66248	1436.71606	1116.72070	1347.83105	1440.89856	1069.43799	1183.61328	1372.76550	1303.27979	1245.39697	1595.35876	1135.35840	1387.73352	1670.38562	1099.58691	1198.49316	1683.17786	1063.91064	1081.17261	1674.54004	1003.15057	966.60010	1636.95618	956.54956	859.37805	1691.35681	969.74713	858.74573	1676.92834	929.88855	785.49005	1285.26306	1186.42480	1366.35095	1219.18677	1194.74597	1141.91943	1206.93506	1182.48621	1029.84705	1203.71912	1169.79822	893.26373	1234.71948	1137.66968	797.08551	1195.56482	1175.51123	792.85858	1202.89783	1153.76294	721.11682	1568.94116	1086.92554	949.17126	1330.42114	1108.95129	946.79950	1531.87708	1253.11780	970.10797	1383.55688	1266.12329	971.23340	1606.50635	1140.90906	644.69720	1564.38306	1140.88171	467.18866	1567.05139	1202.44934	279.84506	1524.08594	1239.81287	73.26215	1489.33020	1283.43140	39.58567	1497.40198	1089.36133	35.07741	1284.96021	1098.83545	654.92914	1307.99243	1034.33020	486.45618	1309.29187	1138.93848	325.19702	1355.90417	1251.61365	141.55484	1410.97058	1302.81372	128.72084	1368.15979	1142.93884	51.98676	1456.71948	1185.42310	1684.49158																					 
52	0.510	1496.34692	1084.60388	1631.77002	1364.63892	1101.51550	1636.68103	1506.85522	1207.08533	1574.88257	1376.41602	1218.81445	1579.83984	1455.93860	1232.17480	1422.28320	1466.02954	1261.33459	1109.41785	1436.80322	1109.93823	1347.54370	1441.08374	1063.11597	1183.17224	1373.52185	1296.93372	1245.02124	1595.48657	1128.34070	1387.48132	1670.29114	1091.19495	1198.64685	1682.85706	1054.35352	1081.67395	1673.47107	992.24261	967.83905	1635.18750	944.48840	861.54968	1689.59790	957.41736	860.43317	1674.63489	916.62170	787.87152	1285.67151	1180.47058	1365.98840	1219.65283	1188.76086	1141.37659	1207.42493	1176.68652	1029.34888	1204.22156	1164.04797	892.81549	1235.19751	1131.81958	796.64368	1196.16772	1169.78247	792.35535	1203.53333	1148.07007	720.79132	1569.34534	1080.86584	948.57843	1330.65588	1102.67712	946.77692	1532.00244	1247.00330	969.76239	1383.76343	1259.85999	970.95697	1606.47363	1136.91699	644.26782	1564.42358	1138.17126	466.77155	1566.93066	1200.90588	279.75775	1524.02478	1239.68201	73.47875	1489.19128	1283.14453	39.85353	1497.44238	1088.98792	35.35722	1284.38770	1089.72827	655.68884	1308.92114	1023.90521	487.67148	1310.03943	1123.03674	322.84113	1356.79480	1228.21277	134.80698	1411.83472	1278.56323	119.37620	1368.68665	1115.59070	50.20381	1457.19775	1178.46167	1684.20947																					 
53	0.520	1496.66467	1077.73059	1631.22632	1364.92993	1094.67249	1636.38281	1506.91870	1200.21277	1574.39819	1376.55164	1211.87695	1579.59827	1456.19678	1225.34265	1421.88818	1466.47144	1255.01404	1109.10559	1436.91394	1103.50037	1346.87427	1441.22705	1056.82434	1182.67102	1374.26917	1290.58447	1244.60706	1595.59033	1121.30652	1387.18347	1670.26758	1083.01404	1198.75293	1682.43652	1044.99829	1082.05640	1672.41296	981.78253	969.04187	1633.31006	932.74542	863.61359	1687.75708	945.41675	862.06970	1672.20874	903.63110	790.19806	1285.88635	1174.17126	1365.39685	1220.03015	1182.89246	1140.86011	1207.88501	1170.84644	1028.80969	1204.62671	1158.22632	892.27637	1235.70605	1125.87329	796.20630	1196.77893	1163.82056	791.82330	1204.07056	1141.99585	720.18750	1569.68579	1074.89282	947.91315	1331.06128	1096.33569	946.63123	1532.11743	1240.94556	969.38898	1383.84741	1253.62915	970.62250	1606.26941	1132.79565	643.81262	1564.35400	1135.61584	466.36160	1566.80310	1199.53210	279.72543	1524.33582	1239.86829	74.11015	1488.94958	1282.97107	39.88968	1497.41650	1089.06665	35.17914	1284.60938	1081.27576	656.15204	1309.28296	1013.93335	489.04080	1310.61987	1107.42273	320.52127	1357.57690	1204.42407	127.94347	1413.01489	1253.93811	110.40186	1368.82727	1088.08350	48.64424	1457.51672	1171.50867	1683.90625																					 
